<svg width="22" height="22" viewBox="0 0 22 22" fill="none" xmlns="http://www.w3.org/2000/svg">
<g id="InfoOutlined">
<path id="Vector" d="M10.0835 6.41665H11.9168V8.24998H10.0835V6.41665ZM10.0835 10.0833H11.9168V15.5833H10.0835V10.0833ZM11.0002 1.83331C5.94016 1.83331 1.8335 5.93998 1.8335 11C1.8335 16.06 5.94016 20.1666 11.0002 20.1666C16.0602 20.1666 20.1668 16.06 20.1668 11C20.1668 5.93998 16.0602 1.83331 11.0002 1.83331ZM11.0002 18.3333C6.95766 18.3333 3.66683 15.0425 3.66683 11C3.66683 6.95748 6.95766 3.66665 11.0002 3.66665C15.0427 3.66665 18.3335 6.95748 18.3335 11C18.3335 15.0425 15.0427 18.3333 11.0002 18.3333Z" fill="#2FBDF7"/>
</g>
</svg>
