<svg width="7" height="15" viewBox="0 0 7 15" fill="none" xmlns="http://www.w3.org/2000/svg">
<path id="Vector" fill-rule="evenodd" clip-rule="evenodd" d="M0.345887 14.5887C0.278221 14.5307 0.222648 14.4599 0.182343 14.3805C0.142038 14.301 0.117791 14.2143 0.110988 14.1255C0.104185 14.0366 0.11496 13.9473 0.142696 13.8626C0.170433 13.7779 0.214586 13.6995 0.272635 13.6319L5.31975 7.74286L0.272635 1.85381C0.162422 1.7165 0.109919 1.54172 0.126226 1.36642C0.142532 1.19111 0.226368 1.02901 0.360013 0.914392C0.493658 0.799771 0.666638 0.741611 0.842383 0.752207C1.01813 0.762803 1.18287 0.841323 1.30177 0.971169L6.7278 7.30154C6.83313 7.42446 6.89102 7.58099 6.89102 7.74286C6.89102 7.90473 6.83313 8.06126 6.7278 8.18417L1.30177 14.5145C1.18467 14.6509 1.01822 14.7353 0.838989 14.749C0.659755 14.7627 0.482398 14.7047 0.345887 14.5878" fill="white"/>
</svg>
